<?xml version="1.0" encoding="UTF-8"?>
<!-- Created with Inkscape (http://www.inkscape.org/) -->
<svg width="756.04" height="138.72" version="1.1" viewBox="0 0 756.04 138.72" xmlns="http://www.w3.org/2000/svg">
 <g transform="translate(-47.418 -76.823)">
  <path d="m400.04 209.18c-0.2979-0.77632-0.41063-9.2512-0.25052-18.833 0.24139-14.446 0.53962-17.422 1.746-17.422 0.8002 0 1.7041 1.0555 2.0086 2.3455l0.55369 2.3455 1.9042-2.1041c2.8572-3.1571 8.5616-4.5776 12.785-3.1836 10.832 3.5749 13.807 18.488 5.1956 26.048-4.9876 4.3792-9.7594 4.9409-15.585 1.8345l-4.729-2.5216-0.29428 6.0384c-0.28221 5.7905-2.0782 8.7268-3.3349 5.452zm22.791-13.709c2.9692-3.3228 3.7122-9.3849 1.7749-14.48-1.173-3.0851-6.5307-6.5567-10.127-6.5618-4.111-6e-3 -9.2269 4.0505-10.684 8.4712-4.0383 12.253 10.651 21.954 19.036 12.571zm163.75-4.046c0-16.222 0.2193-19 1.5-19 0.94131 0 1.5 0.9501 1.5 2.5509v2.5509l3.4626-2.641c9.7167-7.4113 22.537-0.72545 22.537 11.753 0 2.7048-0.50623 5.9008-1.125 7.1021-4.5274 8.7906-14.629 11.128-21.846 5.0556l-3.0294-2.5491v7.0889c0 5.6346-0.30773 7.0889-1.5 7.0889-1.2807 0-1.5-2.7778-1.5-19zm20.033 6.4831c8.3015-4.2929 7.7184-18.858-0.89779-22.427-4.4299-1.8349-9.4959-0.60407-12.575 3.0552-4.697 5.5821-4.6139 12.602 0.20246 17.089 4.4369 4.1336 8.3799 4.8119 13.27 2.283zm82.967 11.07c0-1.053 1.1118-1.4027 4.0829-1.2842 3.2716 0.13047 4.4594-0.32714 5.9778-2.303 1.0422-1.3562 1.9048-2.9602 1.9171-3.5644 0.0122-0.60421-2.9324-7.287-6.5437-14.851-3.6112-7.5637-6.3306-13.987-6.0431-14.275 1.4891-1.4891 3.6139 1.6364 8.5718 12.609 3.0046 6.6494 5.7809 11.758 6.1696 11.353s2.8148-6.0247 5.3912-12.487c2.9952-7.5128 5.2121-11.75 6.1478-11.75 1.8628 0 1.6816 0.55935-6.2878 19.406-3.5106 8.3019-7.3329 15.882-8.494 16.844-2.6879 2.2281-10.89 2.4563-10.89 0.30298zm-541.11-7.8785c-9.0173-3.3574-13.885-10.167-13.885-19.425 0-6.6547 1.2965-9.9028 5.8048-14.543 13.051-13.432 36.662-4.2265 36.662 14.293 0 14.186-15.207 24.654-28.582 19.674zm11.575-10.223c9.0764-4.307 6.3009-19.458-3.616-19.739-6.9005-0.1956-11.573 5.2326-10.468 12.161 0.58751 3.6839 2.995 6.9001 6.1236 8.1806 2.9651 1.2136 4.3542 1.1084 7.9603-0.60283zm130.3 10.178c-4.4409-1.6476-8.7591-4.3523-8.7591-5.4862 0-1.9024 1.4538-1.9566 3.9926-0.14888 3.6913 2.6284 11.018 4.4704 14.403 3.6209 3.5751-0.8973 7.6048-4.9328 7.6048-7.6157 0-3.0787-4.1606-6.7068-9.135-7.9657-9.059-2.2926-12.886-4.175-14.386-7.0755-2.376-4.5947-1.8444-7.7932 1.9213-11.559 3.1193-3.1193 3.9007-3.4 9.4661-3.4 6.5594 0 13.134 2.4037 13.134 4.8018 0 1.5168-0.11594 1.4975-8.2742-1.3743-4.2173-1.4846-5.2065-1.516-8.4809-0.26978-2.0387 0.77594-4.3903 2.6329-5.2258 4.1265-1.3586 2.4287-1.3586 3.0063-6.6e-4 5.4657 1.1358 2.0571 3.0256 3.2027 7.5 4.5466 3.2899 0.98812 8.0066 2.7881 10.482 4 3.7332 1.8279 4.6619 2.8591 5.4503 6.0513 1.0882 4.4063-0.28067 7.7281-4.4503 10.799-3.3924 2.4987-10.61 3.2009-15.241 1.4827zm49.002-0.69226c-4.4467-2.3477-7.7682-8.2009-7.7446-13.648 0.0326-7.4991 7.1577-15.29 13.984-15.29 6.5136 0 13 6.8528 13 13.734v3.2656h-12c-6.6 0-12 0.26949-12 0.59887 0 2.1289 3.4956 7.2627 5.9204 8.6951 3.8758 2.2895 7.5203 2.1484 12.182-0.47179 4.1562-2.336 6.0607-1.9296 3.7898 0.80859-1.841 2.2198-7.1408 4.3802-10.61 4.3251-1.5302-0.0243-4.4647-0.93251-6.5211-2.0182zm15.812-17.688c-0.85187-3.6371-5.9614-8.25-9.1382-8.25-4.0894 0-8.4804 2.8654-10.013 6.5343-0.78167 1.8708-1.4212 3.6409-1.4212 3.9336 0 0.29267 4.7738 0.53212 10.608 0.53212h10.608zm18.878 18.343c-9.768-4.2547-12.125-17.765-4.4392-25.451 8.0034-8.0034 21.26-2.6941 22.206 8.8936l0.2828 3.4638-11.75 0.28174c-10.892 0.26115-11.75 0.42433-11.75 2.2342 0 1.0739 1.2375 3.3252 2.75 5.003 3.7587 4.1695 8.8359 4.9201 14.237 2.1048 4.8227-2.5137 5.0129-2.5408 5.0129-0.71296 0 1.7297-7.7242 5.6038-11.066 5.5501-1.3389-0.0215-3.8066-0.63688-5.4839-1.3675zm14.55-17.046c0-4.6281-5.1025-9.547-9.9033-9.547-3.293 0-6.6617 1.9935-8.4314 4.9895-3.297 5.5814-2.7019 6.0105 8.3347 6.0105 8.0783 0 10-0.27921 10-1.453zm77.395 16.545c-15.921-7.2304-16.452-29.689-0.89498-37.843 4.3835-2.2973 13.115-2.0197 18.182 0.57814 4.5474 2.3313 5.7683 3.6347 4.8288 5.155-0.35407 0.5729-2.1501-0.0243-4.309-1.4328-10.117-6.6001-22.014-2.6517-25.731 8.5394-2.6948 8.1132-0.46466 15.525 6.2007 20.609 5.2437 3.9996 13.188 3.9845 19.264-0.0365 5.3774-3.5586 7.9388-2.1589 2.8998 1.5847-6.7159 4.9893-13.606 5.9485-20.44 2.8454zm36.876-0.0557c-5.5449-2.5171-8.2621-6.9997-8.2669-13.638-5e-3 -6.7258 2.9682-11.198 9.1476-13.759 5.8401-2.4204 10.641-1.6383 15.356 2.5014 3.9241 3.4454 5.974 9.3301 4.9441 14.193-1.4128 6.6709-8.4128 12.705-14.669 12.644-1.2552-0.0121-4.1853-0.88592-6.5115-1.9419zm11.762-2.5531c8.3015-4.2929 7.7184-18.858-0.89779-22.427-7.61-3.1521-16.135 2.9749-16.135 11.597 0 3.9902 0.50208 5.0849 3.8824 8.4652 4.3326 4.3326 8.0524 5.0017 13.15 2.3654zm112.97 2.7654c-6.3724-3.1844-7.417-9.6329-2.3333-14.404 2.2145-2.0782 3.4609-2.3448 10.961-2.3448h8.4627l-0.6239-2.5c-1.425-5.7101-7.2678-8.2113-13.995-5.9911-2.5993 0.85786-3.967 0.89726-4.728 0.13623-1.5264-1.5264 3.5007-3.2538 9.6067-3.3011 5.3755-0.0416 9.2396 2.0807 11.383 6.2524 0.74017 1.4402 1.2412 6.5117 1.25 12.654 0.0121 8.451-0.24853 10.25-1.4853 10.25-0.825 0-1.5-0.675-1.5-1.5 0-1.8709 0.19227-1.8922-4.5 0.5-4.821 2.4579-7.9529 2.5202-12.499 0.24845zm11.459-2.7966c4.8589-2.3057 7.4818-9.4926 3.9579-10.845-3.1963-1.2266-12.96-0.61634-15.196 0.94971-2.213 1.55-2.9804 5.7783-1.4572 8.0288 2.3411 3.4589 7.6838 4.2443 12.695 1.8664zm-456.46-16.452v-20h10.7l15.8 20.5 0.28498-10.25 0.28499-10.25h10.93v40h-9.8968l-7.7015-10c-4.2358-5.5-8.084-10-8.5516-10-0.46754 0-0.85008 4.5-0.85008 10v10h-11zm45 0v-20h32.11l-0.60958 9.5-20.5 0.56997v4.93h7.9182c10.351 0 11.082 0.33442 11.082 5.0695v3.8555l-18.5 0.57505v6l20.5 0.56997v8.93h-32zm92.23-0.66737c0.20204-15.449 0.58593-20.772 1.5203-21.083 0.97363-0.324 1.25 4.2455 1.25 20.667 0 18.199-0.20798 21.083-1.5203 21.083-1.3201 0-1.4847-2.7219-1.25-20.667zm212.77 6.1674c0-12.222 0.23563-14.5 1.5-14.5 0.825 0 1.5 0.675 1.5 1.5 0 1.9636 0.90669 1.8944 3.2762-0.25 3.1495-2.8502 10.087-2.3411 13.413 0.98435l2.7344 2.7343 2.8554-2.7343c2.3631-2.2629 3.7149-2.7216 7.8398-2.6602 4.0218 0.0598 5.5055 0.59475 7.683 2.77l2.6986 2.6958 0.33375 11.98c0.28985 10.404 0.12544 11.98-1.25 11.98-1.3494 0-1.5838-1.6344-1.5838-11.045 0-10.394-0.14478-11.19-2.4546-13.5-3.4406-3.4406-7.8927-3.2611-11.622 0.46853l-2.9231 2.9231v10.577c0 8.3608-0.29111 10.577-1.3894 10.577-1.0796 0-1.4741-2.4756-1.7694-11.103l-0.38004-11.103-2.7864-2.3967c-4.6366-3.9882-10.346-2.868-13.164 2.5833-1.0378 2.0069-1.5104 5.9086-1.5104 12.47 0 7.8219-0.27138 9.5497-1.5 9.5497-1.2644 0-1.5-2.2778-1.5-14.5zm125 0c0-13.194 0.87855-17.896 2.3163-12.399l0.54954 2.1014 2.2022-2.0517c4.6734-4.354 12.291-3.8901 16.405 0.99901 2.38 2.8284 2.527 3.668 2.527 14.426 0 6.9488-0.39169 11.423-1 11.423-0.58541 0-1.0023-3.4204-1.0056-8.25-9e-3 -13.836-2.5209-18.75-9.5821-18.75-4.1968 0-8.1116 3.2562-9.3723 7.7955-0.56588 2.0375-1.0314 7.192-1.0344 11.455-3e-3 4.4963-0.42541 7.75-1.0056 7.75-0.62069 0-1-5.5-1-14.5zm-604.83-41.999c1.8784-11.979 7.6262-22.756 17.429-32.68 10.212-10.339 22.809-16.384 36.54-17.535 23.862-2.0005 49.517 14.775 58.442 38.215l1.9039 5 0.76967-6.5c0.52156-4.4047 2.0691-9.1548 4.8009-14.736 11.73-23.964 40.119-37.701 71.045-34.376 19.611 2.1081 36.235 7.5429 69.903 22.853 22.72 10.332 34.233 14.842 45.413 17.789 27.208 7.1726 45.271 5.7142 97.087-7.839 33.65-8.8017 45.101-11.119 63-12.747 20.325-1.8493 46.057 0.15323 65.962 5.1332 10.354 2.5905 26.803 7.9918 26.193 8.6013-0.25902 0.25902-4.7067-0.44677-9.8837-1.5684-15.113-3.2744-33.05-5.1096-49.941-5.1096-27.05 0-46.072 3.3605-85.413 15.09-40.991 12.221-54.983 14.933-76.74 14.875-26.437-0.07-41.804-4.755-84.213-25.674-36.863-18.183-54.071-23.582-75.464-23.678-10.221-0.0458-13.776 0.34664-19.5 2.1521-22.347 7.0489-39.233 24.817-41.166 43.317-0.34016 3.2545-0.9215 5.9173-1.2919 5.9173-0.37037 0-1.6512-1.7397-2.8463-3.8661-6.3807-11.353-22.705-24.544-36.195-29.249-9.3447-3.2589-23.899-3.2833-33.243-0.0558-9.1866 3.1733-20.075 10.501-27.098 18.238-5.6993 6.2782-12.8 17.175-14.13 21.683-1.2908 4.3754-2.2145 2.175-1.3639-3.2492zm632.33 1.9614c-13.111-1.4371-32.812-4.477-64.5-9.9527-37.384-6.4598-51.177-7.8926-76-7.8945-22.593-2e-3 -32.674 1.0234-46.999 4.7793-3.0243 0.79294-5.6604 1.28-5.8581 1.0823-0.65975-0.65975 7.2465-3.573 17.653-6.5046 14.427-4.0643 28.026-5.9816 47.272-6.6651 24.813-0.88118 45.064 1.0218 92.431 8.6852 36.792 5.9526 51.448 7.8276 70.5 9.0193 26.469 1.6556 50.42-0.23415 69.501-5.4839 4.8998-1.3481 9.0965-2.2632 9.326-2.0337 1.1919 1.1919-18.83 8.7978-31.327 11.9-18.778 4.662-55.07 6.0199-82 3.0682z" fill="#1b2c41"/>
 </g>
</svg>
