<?xml version="1.0" standalone="no"?>
<!DOCTYPE svg PUBLIC "-//W3C//DTD SVG 20010904//EN"
 "http://www.w3.org/TR/2001/REC-SVG-20010904/DTD/svg10.dtd">
<svg version="1.0" xmlns="http://www.w3.org/2000/svg"
 width="1348.000000pt" height="1348.000000pt" viewBox="0 0 1348.000000 1348.000000"
 preserveAspectRatio="xMidYMid meet">
<metadata>
Created by potrace 1.14, written by Peter Selinger 2001-2017
</metadata>
<g transform="translate(0.000000,1348.000000) scale(0.100000,-0.100000)"
fill="#000000" stroke="none">
<path d="M7059 10256 c-2 -2 -38 -7 -79 -11 -41 -4 -86 -8 -100 -10 -24 -2
-154 -23 -195 -30 -166 -32 -382 -94 -530 -151 -192 -75 -517 -250 -589 -316
-11 -10 -23 -18 -27 -18 -4 0 -14 -6 -21 -13 -7 -7 -33 -28 -58 -47 -172 -133
-363 -338 -494 -529 -67 -97 -180 -311 -226 -426 -18 -44 -39 -96 -47 -115 -8
-20 -15 -42 -17 -50 -1 -8 -9 -40 -18 -70 -16 -55 -29 -117 -33 -155 -2 -18
-6 -46 -19 -140 -2 -16 -7 -57 -10 -90 -4 -32 -8 -60 -9 -62 -2 -1 -25 57 -52
130 -64 172 -164 369 -258 510 -42 61 -84 121 -94 132 -10 11 -31 38 -48 60
-33 44 -259 273 -315 319 -254 208 -546 372 -820 462 -79 26 -258 74 -300 80
-14 2 -34 5 -45 8 -134 28 -448 29 -660 0 -25 -3 -98 -19 -220 -49 -50 -12
-235 -75 -280 -95 -96 -43 -249 -122 -302 -156 -29 -19 -56 -34 -59 -34 -2 0
-10 -4 -17 -10 -7 -5 -60 -46 -119 -90 -129 -95 -156 -119 -268 -231 -107
-108 -150 -155 -226 -249 -66 -81 -194 -263 -194 -276 0 -4 -6 -15 -14 -23
-17 -19 -118 -220 -147 -293 -30 -75 -87 -242 -93 -270 -2 -12 -9 -44 -15 -71
-6 -26 -14 -64 -17 -85 -3 -20 -8 -40 -10 -43 -8 -13 -15 -174 -9 -205 11 -61
24 -45 76 91 27 72 98 209 147 285 20 30 42 66 50 79 7 14 56 85 109 159 224
314 404 496 691 700 65 45 122 87 129 92 7 6 14 10 17 10 2 0 35 19 72 42 70
42 305 159 346 173 13 4 25 8 28 9 39 16 228 69 255 71 10 1 83 14 120 21 120
24 552 23 664 0 12 -3 43 -8 68 -10 251 -30 612 -194 933 -425 58 -41 110 -80
116 -86 6 -5 26 -21 44 -35 100 -75 293 -257 402 -382 64 -72 158 -196 158
-207 0 -5 4 -11 8 -13 5 -1 23 -30 42 -63 36 -64 95 -151 117 -173 23 -23 42
36 59 183 3 33 8 69 10 80 2 11 9 47 15 80 6 33 17 85 25 115 13 51 18 68 40
125 4 11 8 25 9 30 4 15 89 199 95 205 3 3 14 21 24 40 17 31 99 160 119 185
118 156 259 308 367 395 24 19 48 40 54 46 40 38 226 166 336 231 86 50 292
153 307 153 4 0 21 7 38 16 27 14 242 90 282 99 241 57 271 60 658 60 306 0
413 -5 550 -24 39 -6 93 -13 120 -16 28 -4 106 -18 175 -32 152 -30 131 -25
270 -63 63 -17 123 -32 133 -35 9 -2 21 -6 25 -9 5 -3 19 -7 33 -10 41 -9 325
-107 394 -137 11 -4 62 -24 113 -44 52 -19 108 -41 125 -49 18 -7 61 -26 97
-41 36 -15 83 -35 105 -45 22 -10 76 -33 120 -53 170 -74 446 -204 815 -385
251 -123 487 -236 585 -282 33 -15 101 -47 150 -70 87 -41 135 -62 145 -65 3
0 14 -6 25 -12 27 -15 311 -138 405 -175 178 -71 477 -182 515 -192 6 -1 30
-9 55 -16 25 -8 47 -14 50 -15 3 -1 25 -7 50 -15 48 -14 54 -16 85 -24 11 -3
45 -12 75 -21 30 -8 66 -17 80 -20 14 -3 36 -7 50 -10 14 -3 36 -8 50 -11 14
-3 33 -7 43 -10 10 -3 30 -7 45 -9 15 -2 43 -6 62 -10 19 -3 51 -8 70 -11 19
-2 46 -6 60 -9 27 -5 74 -11 160 -21 171 -19 580 -36 580 -24 0 3 -30 16 -67
29 -86 30 -240 86 -318 116 -33 13 -161 63 -285 110 -124 48 -236 92 -250 98
-14 5 -31 11 -38 13 -7 1 -33 12 -58 23 -24 12 -50 21 -57 21 -7 0 -17 4 -22
8 -6 4 -48 23 -95 41 -204 80 -243 97 -395 176 -240 124 -499 261 -565 298
-19 11 -60 33 -90 50 -30 16 -111 62 -180 102 -69 39 -154 86 -190 102 -123
58 -227 106 -420 193 -47 21 -116 52 -155 70 -115 53 -441 194 -575 249 -69
29 -134 56 -145 60 -83 35 -289 116 -400 156 -242 88 -436 152 -615 201 -44
12 -300 74 -323 78 -15 2 -62 11 -104 20 -43 8 -94 17 -113 20 -19 3 -44 8
-56 10 -12 2 -43 7 -70 10 -27 4 -65 9 -84 11 -19 2 -60 7 -90 11 -30 4 -68 9
-85 11 -36 5 -541 13 -546 9z"/>
<path d="M8004 7493 c-9 -32 -9 -36 -19 -119 -21 -184 -37 -1213 -21 -1396 8
-95 22 -130 50 -126 47 7 50 49 52 793 1 661 -4 832 -28 863 -16 19 -25 15
-34 -15z"/>
<path d="M1608 7474 c-2 -1 -21 -5 -43 -8 -90 -14 -264 -76 -273 -98 -2 -4 -8
-8 -14 -8 -32 0 -191 -141 -270 -241 -50 -63 -104 -172 -117 -239 -21 -107
-23 -126 -22 -225 0 -140 9 -204 46 -308 80 -231 279 -411 547 -497 97 -30
115 -33 243 -33 133 0 238 21 349 72 269 123 460 367 503 645 9 53 8 199 -1
251 -43 250 -199 460 -436 588 -61 32 -167 72 -221 82 -13 3 -37 8 -54 11 -29
7 -232 14 -237 8z m188 -419 c133 -20 253 -140 294 -295 15 -54 20 -180 8
-180 -5 0 -6 -4 -3 -10 8 -13 -20 -104 -46 -148 -35 -59 -80 -101 -144 -138
-81 -45 -140 -65 -197 -66 -47 -2 -168 31 -168 44 0 5 -6 8 -13 8 -24 0 -116
94 -151 153 -48 81 -70 206 -54 301 12 70 11 65 37 120 59 120 190 206 327
215 27 1 51 4 53 7 2 2 7 1 11 -1 4 -3 25 -7 46 -10z"/>
<path d="M2813 7452 c-20 -3 -23 -10 -24 -50 0 -26 -1 -385 -2 -799 l-2 -752
50 -3 c28 -2 128 -2 223 0 l172 3 1 304 c1 168 2 317 3 333 5 68 19 152 26
157 9 6 98 -88 207 -222 10 -12 27 -33 37 -48 11 -14 28 -36 39 -48 11 -12 38
-46 60 -76 22 -30 46 -62 53 -70 7 -9 68 -87 134 -173 l121 -157 87 -3 c48 -2
138 -2 200 0 l112 3 0 800 0 799 -220 0 -220 0 -1 -52 c-2 -168 -21 -753 -24
-756 -3 -3 -60 67 -100 122 -11 15 -32 42 -47 59 -15 18 -28 35 -28 39 0 4 -8
15 -18 25 -10 10 -38 45 -62 78 -25 33 -47 62 -50 65 -3 3 -34 43 -70 90 -35
47 -106 139 -158 205 l-93 120 -192 5 c-106 3 -202 4 -214 2z"/>
<path d="M4590 7263 c-2 -931 -1 -1406 3 -1409 3 -3 1112 -7 1245 -5 l32 1 0
178 0 179 -37 0 c-21 1 -146 4 -278 8 -132 4 -289 9 -350 10 -60 2 -120 4
-132 4 -23 1 -23 3 -23 121 l0 120 48 1 c52 1 231 6 422 13 69 3 157 5 197 5
l72 1 -1 124 c-1 137 -12 177 -57 200 -59 31 -105 34 -453 35 l-248 1 0 99 0
99 98 2 c53 1 147 4 207 5 61 2 199 6 309 9 109 3 200 7 202 9 2 2 6 37 9 78
11 203 18 285 22 292 2 4 -286 7 -641 7 l-646 0 0 -187z"/>
<path d="M6800 7441 c-44 -9 -93 -35 -132 -69 -177 -156 -228 -285 -172 -439
44 -121 92 -175 210 -232 65 -32 256 -99 304 -107 14 -3 36 -9 50 -13 14 -5
39 -12 55 -16 27 -6 51 -15 125 -48 121 -54 230 -180 230 -267 0 -98 -160
-265 -288 -299 -144 -39 -410 22 -584 134 -83 54 -141 67 -157 37 -16 -30 -14
-44 12 -73 22 -25 119 -92 161 -110 12 -5 28 -13 36 -18 61 -37 218 -86 295
-91 222 -15 383 31 511 147 47 43 91 109 110 165 16 48 22 166 10 186 -3 5 -8
23 -11 41 -8 49 -41 108 -82 147 -36 35 -201 120 -290 150 -27 9 -61 22 -78
29 -16 7 -98 36 -182 64 -210 69 -267 108 -317 213 -36 76 -24 136 44 224 21
27 99 88 137 108 126 64 218 67 373 13 229 -81 247 -86 280 -91 9 -1 20 -5 27
-9 19 -12 36 20 29 55 -4 23 -18 41 -44 59 -41 30 -156 79 -182 79 -9 0 -20 3
-24 7 -4 4 -17 8 -29 9 -12 1 -33 5 -47 9 -36 10 -339 14 -380 6z"/>
<path d="M8925 7045 c-5 -1 -30 -8 -55 -16 -63 -18 -170 -85 -231 -144 -90
-86 -151 -194 -198 -345 -9 -30 -7 -183 4 -225 11 -47 12 -49 19 -70 47 -137
160 -284 261 -342 196 -111 349 -118 550 -22 109 51 179 114 190 169 9 45 -54
33 -193 -35 -62 -31 -121 -58 -131 -60 -10 -2 -34 -7 -52 -13 -96 -25 -261 15
-338 84 -103 91 -237 322 -190 325 8 1 28 3 44 5 17 3 226 7 465 10 239 4 437
8 439 10 6 6 2 161 -5 209 -7 49 -60 179 -80 196 -8 6 -14 15 -14 20 0 11 -42
60 -93 108 -92 86 -220 142 -326 140 -31 0 -60 -2 -66 -4z m186 -147 c68 -33
219 -173 219 -203 0 -8 4 -15 9 -15 8 0 44 -100 47 -130 0 -8 4 -26 9 -38 l7
-24 -389 6 c-420 6 -408 5 -440 12 -25 5 -25 7 6 89 70 185 191 293 366 329
59 12 105 5 166 -26z"/>
<path d="M10247 7034 c-2 -2 -21 -6 -43 -10 -83 -13 -187 -74 -266 -158 -27
-28 -48 -53 -48 -57 0 -4 -6 -14 -14 -21 -30 -31 -79 -146 -94 -223 -6 -35 -7
-219 -1 -255 20 -111 87 -238 174 -325 126 -128 339 -198 485 -160 36 9 69 20
75 23 5 4 16 7 23 8 19 3 131 63 177 94 71 49 97 97 69 125 -17 17 -28 14
-145 -46 -131 -67 -192 -86 -289 -90 -129 -6 -255 60 -361 188 -22 28 -79 143
-79 162 0 46 45 70 145 77 49 3 413 15 585 19 69 1 145 3 169 4 l43 1 -6 83
c-4 45 -9 98 -12 117 -9 51 -51 159 -80 204 -28 41 -117 133 -149 153 -42 27
-122 62 -165 74 -42 11 -185 21 -193 13z m219 -144 c86 -42 176 -131 212 -209
30 -66 40 -142 21 -158 -29 -23 -116 -30 -365 -31 -425 -1 -466 16 -395 163
53 111 126 191 219 239 17 9 32 14 32 12 0 -3 15 1 33 9 19 8 60 13 103 11 57
-1 84 -8 140 -36z"/>
<path d="M11670 7024 c-96 -20 -196 -73 -263 -141 -31 -31 -57 -61 -57 -65 0
-4 -4 -8 -8 -8 -6 0 -18 33 -38 110 -6 22 -53 70 -69 70 -47 0 -61 -105 -71
-510 -7 -325 -4 -842 5 -936 2 -23 42 -63 57 -57 20 7 52 73 60 119 3 20 8 46
10 58 4 20 12 150 16 268 3 66 7 67 82 25 27 -15 52 -27 57 -27 5 0 9 -4 9
-10 0 -5 3 -9 8 -8 4 1 25 -7 47 -19 94 -49 177 -70 270 -70 49 0 96 3 105 7
104 48 177 88 207 114 100 87 147 149 186 248 36 88 41 118 41 233 0 106 -9
172 -26 193 -6 6 -8 12 -5 12 10 0 -30 87 -68 145 -72 113 -203 213 -322 244
-64 17 -162 19 -233 5z m191 -119 c120 -40 246 -140 287 -228 79 -169 53 -449
-53 -573 -14 -16 -25 -32 -25 -36 0 -5 -4 -8 -9 -8 -6 0 -24 -13 -42 -30 -75
-68 -209 -104 -320 -86 -235 40 -414 261 -403 500 6 125 45 221 130 314 50 56
163 138 202 148 10 2 33 8 52 13 55 14 110 10 181 -14z"/>
<path d="M1567 5184 c-1 -1 -31 -5 -66 -9 -206 -21 -429 -192 -540 -414 -202
-400 -69 -877 306 -1104 208 -125 448 -152 655 -73 152 58 319 172 357 243 10
19 8 24 -10 34 -23 12 -100 -3 -129 -26 -25 -19 -131 -79 -184 -104 -123 -57
-311 -80 -431 -51 -27 6 -57 13 -65 15 -62 14 -196 100 -261 167 -90 93 -167
229 -186 328 -27 141 -20 266 23 403 39 124 91 212 174 297 46 47 131 110 148
110 5 0 15 6 21 14 6 8 22 16 34 19 12 3 55 14 96 26 166 45 362 9 547 -100
48 -29 107 -58 131 -65 40 -12 44 -11 57 8 27 39 -5 85 -103 146 -41 26 -78
47 -81 48 -3 0 -25 10 -50 21 -51 23 -150 49 -225 59 -50 7 -213 13 -218 8z"/>
<path d="M3009 4750 c-47 -10 -100 -25 -117 -34 -17 -9 -33 -15 -34 -14 -10 8
-140 -75 -191 -123 -74 -68 -129 -167 -151 -271 -12 -60 -14 -256 -3 -298 45
-176 107 -267 235 -352 41 -26 79 -48 83 -48 5 0 28 -9 52 -19 37 -17 88 -35
94 -33 1 0 22 -5 45 -12 142 -41 342 36 490 189 54 55 141 197 154 250 2 6 6
21 10 35 13 51 16 175 5 229 -47 221 -173 380 -374 471 -54 24 -92 33 -193 44
-11 2 -59 -5 -105 -14z m171 -114 c121 -21 239 -112 297 -227 84 -170 79 -395
-13 -541 -35 -55 -103 -128 -120 -128 -8 0 -14 -4 -14 -8 0 -5 -22 -18 -48
-29 -207 -91 -331 -63 -509 113 -122 120 -146 170 -148 304 -1 52 4 117 11
144 67 254 301 414 544 372z"/>
<path d="M9412 4749 c-80 -22 -131 -53 -207 -123 -60 -55 -71 -58 -78 -21 -8
45 -27 102 -40 120 -14 18 -15 18 -25 -2 -25 -46 -35 -218 -35 -583 0 -372 9
-516 33 -560 7 -12 11 -10 18 11 16 40 23 121 27 309 2 96 7 198 10 225 3 28
8 70 10 95 3 25 8 56 11 70 3 14 8 36 10 49 19 100 173 281 239 281 8 0 15 5
15 12 0 6 3 9 6 5 3 -3 18 -1 33 5 42 17 160 11 220 -12 109 -40 185 -152 216
-320 18 -97 24 -175 31 -415 6 -229 14 -308 34 -320 8 -5 21 18 25 45 18 104
25 598 12 757 -12 139 -68 232 -188 312 -109 73 -251 96 -377 60z"/>
<path d="M4435 4753 c-37 -7 -117 -34 -128 -44 -83 -68 -115 -89 -134 -89 -15
0 -24 6 -25 18 -1 9 -2 24 -3 32 -3 32 -30 60 -58 60 -56 0 -62 -57 -61 -585
0 -214 2 -412 4 -440 5 -63 28 -135 43 -134 16 1 54 17 43 18 -5 1 -4 7 2 14
14 17 22 121 27 392 3 121 7 234 9 250 18 129 23 148 53 211 29 62 97 134 154
164 62 32 171 38 235 14 49 -18 122 -64 172 -109 15 -13 37 -32 50 -43 21 -18
23 -30 27 -143 17 -505 18 -529 30 -639 13 -131 65 -174 90 -75 12 49 15 133
17 470 l1 320 43 47 c24 26 44 46 44 45 0 -2 22 18 49 43 159 150 351 133 484
-41 51 -68 55 -104 62 -539 2 -157 6 -300 9 -319 7 -41 31 -81 51 -81 18 0 45
27 46 48 0 9 2 26 5 37 6 28 5 247 -2 465 -3 102 -6 236 -8 299 l-3 114 -85
82 c-123 119 -142 127 -337 131 -192 3 -200 0 -385 -176 l-36 -34 -68 65 c-85
84 -113 102 -191 129 -58 19 -179 32 -226 23z"/>
<path d="M6675 4745 c-27 -7 -63 -18 -80 -24 -46 -19 -99 -44 -105 -51 -3 -3
-41 -32 -85 -64 -44 -33 -83 -64 -87 -70 -9 -14 -9 -16 -14 73 -4 83 -22 121
-58 121 -54 0 -59 -64 -59 -730 0 -512 4 -689 19 -740 24 -86 77 -56 90 50 3
30 6 146 7 257 1 201 1 202 21 191 12 -6 23 -14 26 -17 3 -4 28 -25 55 -47
126 -104 225 -145 357 -147 121 -2 170 9 272 59 59 29 206 158 206 182 0 6 5
12 10 12 6 0 10 7 10 15 0 8 3 15 8 15 4 0 12 12 19 28 30 70 42 104 41 110
-1 4 2 32 7 62 10 64 6 275 -5 275 -1 0 -4 13 -6 30 -10 56 -86 193 -139 249
-60 63 -161 131 -208 141 -18 4 -36 10 -42 13 -29 18 -199 22 -260 7z m190
-110 c22 -3 67 -19 101 -34 221 -102 313 -417 198 -679 -46 -104 -115 -175
-223 -230 -70 -35 -81 -37 -165 -37 -75 0 -100 5 -141 25 -102 49 -209 139
-259 218 -54 86 -82 234 -61 322 3 14 8 36 11 49 8 39 44 112 85 172 105 155
267 224 454 194z"/>
<path d="M8009 4736 c-2 -2 -26 -6 -54 -9 -27 -3 -75 -13 -105 -22 -30 -9 -60
-17 -66 -18 -5 -2 -23 -13 -38 -25 -27 -21 -28 -23 -12 -47 25 -37 60 -37 214
3 169 44 282 32 392 -40 75 -49 137 -150 154 -247 2 -14 7 -33 10 -42 6 -13
-16 -15 -191 -16 -410 -1 -469 -7 -539 -59 -80 -59 -142 -146 -162 -224 -11
-46 -8 -152 5 -173 4 -7 8 -14 8 -17 4 -30 104 -150 125 -150 5 0 10 -4 10
-10 0 -5 6 -10 14 -10 8 0 16 -4 18 -8 5 -12 150 -71 195 -78 114 -20 198 0
386 92 68 34 114 51 120 45 5 -5 11 -24 12 -42 3 -36 38 -72 64 -67 22 4 42
51 48 111 7 79 7 440 -1 547 -15 215 -34 273 -117 364 -47 51 -133 105 -194
121 -16 5 -37 10 -45 12 -20 6 -246 14 -251 9z m403 -581 c56 -16 70 -28 85
-72 36 -102 -68 -290 -198 -359 -19 -10 -36 -19 -39 -19 -3 -1 -18 -7 -33 -13
-33 -14 -79 -24 -127 -27 -19 -1 -37 -4 -40 -5 -3 -1 -9 -1 -15 0 -5 1 -26 4
-45 6 -105 11 -196 67 -234 142 -48 95 -9 257 75 306 36 22 144 45 237 53 42
3 78 6 79 7 10 8 217 -7 255 -19z"/>
<path d="M10289 4730 c-8 -6 -7 -21 6 -61 18 -54 69 -179 105 -254 10 -22 32
-69 48 -105 16 -36 48 -103 70 -150 22 -47 61 -130 87 -185 76 -163 165 -371
171 -403 11 -56 -89 -207 -155 -234 -14 -6 -73 -12 -130 -14 -133 -4 -163 -9
-178 -30 -17 -23 0 -52 39 -68 44 -19 165 -19 244 -1 91 21 144 48 171 88 25
36 254 490 257 510 1 6 4 17 8 22 25 42 301 712 322 784 21 70 20 88 -3 100
-47 26 -114 -99 -315 -586 -52 -128 -105 -252 -116 -275 -11 -23 -20 -48 -20
-55 0 -7 -4 -13 -9 -13 -5 0 -11 -10 -15 -22 -5 -21 -7 -20 -35 17 -37 52
-134 240 -244 480 -171 371 -252 489 -308 455z"/>
</g>
</svg>
